HIERARCHY
ROOT Hips
{
	OFFSET 0.00000 0.00000 0.00000
	CHANNELS 6 Xposition Yposition Zposition Yrotation Zrotation Xrotation 
	JOINT Lumbar
	{
		OFFSET 0 0 0
		CHANNELS 3 Zrotation Xrotation Yrotation
		JOINT Neck
		{
			OFFSET 0.00 0.2701 0.00
			CHANNELS 3 Zrotation Xrotation Yrotation
			End Site
			{
				OFFSET 0.00 0.1379 0.00
			}
		}
		JOINT RightShoulder
		{
			OFFSET 0.0119 0.2289 0.1181
			CHANNELS 3 Zrotation Xrotation Yrotation
			JOINT RightElbow
			{
				OFFSET 0.00 -0.1475 0.00
				CHANNELS 2 Zrotation Yrotation
				JOINT RightWrist
				{
					OFFSET 0.00 -0.1605 0.00
					CHANNELS 2 Zrotation Xrotation
					End Site
					{
						OFFSET 0.0040 -0.1068 0.0006
					}
				}
			}
		}
		JOINT LeftShoulder
		{
			OFFSET 0.0119 0.2289 -0.1181
			CHANNELS 3 Zrotation Xrotation Yrotation
			JOINT LeftElbow
			{
				OFFSET 0.00 -0.1475 0.00
				CHANNELS 2 Zrotation Yrotation
				JOINT LeftWrist
				{
					OFFSET 0.00 -0.1605 0.00
					CHANNELS 2 Zrotation Xrotation
					End Site
					{
						OFFSET 0.0040 -0.1068 -0.0006
					}
				}
			}
		}
	}
	JOINT RightHip
	{
		OFFSET 0.0316 -0.0424 0.0458
		CHANNELS 3 Zrotation Xrotation Yrotation
		JOINT RightKnee
		{
			OFFSET 0.00 -0.2438 0.00
			CHANNELS 1 Zrotation
			JOINT RightAnkle
			{
				OFFSET 0.00 -0.2449 0.00
				CHANNELS 3 Zrotation Xrotation Yrotation
				End Site
				{
					OFFSET 0.1237 -0.0542 0.0051
				}
			}
		}
	}
	JOINT LeftHip
	{
		OFFSET 0.0316 -0.0424 -0.0458
		CHANNELS 3 Zrotation Xrotation Yrotation
		JOINT LeftKnee
		{
			OFFSET 0.00 -0.2438 0.00
			CHANNELS 1 Zrotation
			JOINT LeftAnkle
			{
				OFFSET 0.00 -0.2449 0.00
				CHANNELS 3 Zrotation Xrotation Yrotation
				End Site
				{
					OFFSET 0.1237 -0.0542 -0.0051
				}
			}
		}
	}
}
MOTION
Frames: 19
Frame Time: 0.02
-0.00054 -0.00013 0.00086 23.26239 -31.3783 -6.92001 50.00544 1.74005 -3.60925 8.50655 0.18247 -0.32711 -8.96838 -14.5136 -17.75222 27.86662 68.92586 -3.20907 -1.7728 -13.82216 17.47668 -3.28229 54.22339 -101.70515 11.15036 -1.49807 44.25861 1.72938 -5.27701 -19.28217 -6.26131 -3.58556 -2.53489 46.99893 1.21665 -0.57245 -24.93408 -6.42459 3.76849 2.68726
-0.00027 -9e-05 0.00082 23.39535 -31.33356 -6.91823 49.90193 1.73232 -3.6499 8.60283 0.11797 -0.32776 -9.44385 -14.23739 -14.37579 28.46561 73.89537 -1.3133 -1.1961 -14.07917 17.26871 -5.09776 53.6365 -101.77961 11.33394 -1.46207 44.17193 1.69111 -5.57142 -19.30686 -6.25761 -3.58446 -2.52873 46.93051 1.32136 -0.15223 -24.95461 -6.41406 3.71462 2.64712
-0 -5e-05 0.00078 23.52807 -31.28896 -6.91644 49.79862 1.72461 -3.69054 8.69869 0.05364 -0.32844 -9.91854 -13.96235 -11.00899 29.06373 78.84933 0.57675 -0.62127 -14.33601 17.06113 -6.90748 53.05133 -101.8544 11.51754 -1.42618 44.08554 1.65293 -5.86491 -19.33148 -6.25393 -3.58337 -2.5226 46.86235 1.42576 0.26679 -24.97509 -6.40358 3.66088 2.60709
0.00027 -2e-05 0.00075 23.66065 -31.24436 -6.91466 49.69541 1.7169 -3.73109 8.79465 -0.01066 -0.32909 -10.39266 -13.68702 -7.64278 29.66106 83.8037 2.46675 -0.04634 -14.59233 16.85373 -8.71738 52.46622 -101.92874 11.70068 -1.3903 43.99913 1.61477 -6.15841 -19.35609 -6.25024 -3.58227 -2.51647 46.79414 1.53015 0.68574 -24.99556 -6.39308 3.60716 2.56708
0.00054 2e-05 0.00071 23.79339 -31.19964 -6.91291 49.59207 1.70919 -3.77162 8.89109 -0.07511 -0.32972 -10.86727 -13.41047 -4.26736 30.25879 88.77315 4.36226 0.53043 -14.84859 16.64614 -10.53295 51.87947 -102.00248 11.8835 -1.35432 43.91244 1.57653 -6.45284 -19.38078 -6.24653 -3.58116 -2.5103 46.72568 1.63485 1.10585 -25.01609 -6.38254 3.55332 2.52696
0.0008 6e-05 0.00067 23.92605 -31.1553 -6.91103 49.48882 1.70146 -3.81245 8.98573 -0.13919 -0.33049 -11.34208 -13.13862 -0.91895 30.85764 93.69394 6.24063 1.1011 -15.10665 16.43864 -12.33023 51.29766 -102.07945 12.06869 -1.31861 43.82669 1.5385 -6.74434 -19.40524 -6.24292 -3.58013 -2.50427 46.65816 1.73858 1.52253 -25.03645 -6.37217 3.4998 2.48711
0.00108 0.0001 0.00063 24.05874 -31.11023 -6.90942 49.3855 1.69378 -3.85268 9.08388 -0.20395 -0.33097 -11.81604 -12.85749 2.48028 31.45379 98.70841 8.15176 1.68358 -15.36077 16.23093 -14.16256 50.7065 -102.14998 12.24913 -1.28239 43.7391 1.50008 -7.04138 -19.43014 -6.2391 -3.57894 -2.49797 46.58878 1.84416 1.9457 -25.05712 -6.36146 3.4457 2.44677
0.00135 0.00013 0.0006 24.1914 -31.06586 -6.90756 49.28222 1.68606 -3.8934 9.17879 -0.26805 -0.33173 -12.29063 -12.58515 5.83235 32.05207 103.63435 10.03206 2.25485 -15.61859 16.02386 -15.96214 50.12404 -102.22619 12.43355 -1.24667 43.65328 1.46201 -7.33338 -19.45463 -6.23548 -3.57789 -2.49191 46.52118 1.94802 2.36277 -25.0775 -6.35108 3.39213 2.40689
0.0016 0.00017 0.00056 24.32412 -31.02221 -6.90536 49.17904 1.67826 -3.935 9.26977 -0.33151 -0.33278 -12.76693 -12.32255 9.12949 32.6548 108.4626 11.87793 2.81391 -15.88088 15.81569 -17.72412 49.55165 -102.31052 12.62458 -1.21142 43.56931 1.42439 -7.61905 -19.47865 -6.2321 -3.57704 -2.48615 46.45546 2.04985 2.77303 -25.09754 -6.34105 3.33918 2.36754
0.00192 0.00021 0.0005 24.45677 -30.97401 -6.90501 49.07543 1.67084 -3.97235 9.38344 -0.39918 -0.33202 -13.23623 -12.00092 12.75096 33.23752 113.88469 13.93176 3.4477 -16.11734 15.60819 -19.70978 48.9196 -102.35166 12.78285 -1.17306 43.47376 1.38424 -7.94064 -19.50544 -6.22729 -3.57511 -2.47871 46.37803 2.16361 3.22444 -25.1196 -6.32885 3.28256 2.32501
0.0021 0.00025 0.0005 24.58935 -30.93567 -6.90082 48.97268 1.66268 -4.01812 9.44923 -0.45762 -0.33516 -13.71836 -11.80571 15.68251 33.85872 118.03325 15.54036 3.92097 -16.40825 15.40293 -21.21872 48.41456 -102.4816 13.00678 -1.14153 43.40325 1.34943 -8.18677 -19.52634 -6.22553 -3.57541 -2.47478 46.32591 2.25203 3.58772 -25.13737 -6.32129 3.23379 2.28927
0.00191 0.00033 0.00065 24.72377 -30.9229 -6.88538 48.87234 1.65182 -4.09186 9.38286 -0.49308 -0.34848 -14.2522 -11.94525 16.74927 34.61752 118.82878 15.97005 3.97395 -16.85037 15.17328 -21.44426 48.25125 -102.88383 13.44379 -1.12753 43.39746 1.32919 -8.22134 -19.53132 -6.23213 -3.58216 -2.4809 46.33953 2.27176 3.71824 -25.14345 -6.32626 3.20594 2.27153
0.00157 0.00042 0.00085 24.85776 -30.92052 -6.86621 48.77277 1.64028 -4.17315 9.26888 -0.51877 -0.3658 -14.79565 -12.21384 17.11772 35.40894 118.3232 15.94554 3.86269 -17.34655 14.9512 -21.18521 48.21616 -103.37468 13.94224 -1.12128 43.41788 1.31431 -8.18107 -19.53035 -6.24182 -3.59107 -2.49046 46.37961 2.26594 3.7589 -25.14522 -6.33595 3.18608 2.26069
0.00129 0.0005 0.00104 24.99058 -30.91412 -6.84922 48.67294 1.62958 -4.24778 9.17681 -0.54743 -0.38166 -15.32418 -12.43147 17.7876 36.16461 118.31558 16.0999 3.81255 -17.81723 14.74601 -21.13341 48.12755 -103.80023 14.38905 -1.11143 43.42849 1.29707 -8.17789 -19.53194 -6.25009 -3.59877 -2.49818 46.40958 2.2712 3.8344 -25.14889 -6.34362 3.16302 2.24712
0.00104 0.00059 0.00119 25.12905 -30.90396 -6.83018 48.57311 1.61691 -4.33602 9.08222 -0.58249 -0.3961 -15.89816 -12.61746 18.52452 37.00902 118.68326 16.36634 3.81637 -18.29322 14.45638 -21.14078 48.02149 -104.31204 14.92954 -1.09922 43.42893 1.27962 -8.16122 -19.53409 -6.25837 -3.60748 -2.50709 46.4301 2.27841 3.9338 -25.15274 -6.35074 3.13825 2.23198
0.00068 0.00066 0.00144 25.25578 -30.9051 -6.8145 48.473 1.60786 -4.39775 8.98319 -0.60162 -0.41436 -16.37867 -12.89924 18.95473 37.67592 117.98101 16.2958 3.67238 -18.76936 14.34268 -20.9033 47.97924 -104.68976 15.29771 -1.09714 43.45848 1.26376 -8.15533 -19.5337 -6.26745 -3.61456 -2.51432 46.47838 2.27582 3.96367 -25.15524 -6.36017 3.11883 2.22161
7e-05 0.00064 0.00194 25.34915 -30.92671 -6.8093 48.37567 1.61159 -4.38416 8.8706 -0.58152 -0.44271 -16.60764 -13.41928 18.72464 37.84823 114.47247 15.37154 3.13043 -19.24581 14.73027 -20.17299 48.10698 -104.44483 15.09741 -1.08922 43.54773 1.25198 -8.19417 -19.5276 -6.27711 -3.61691 -2.51614 46.58188 2.24984 3.81054 -25.15459 -6.37437 3.11317 2.22371
-0.00066 0.00058 0.00255 25.43092 -30.96106 -6.80759 48.27731 1.6185 -4.3438 8.75792 -0.54524 -0.47464 -16.74035 -14.03004 18.20754 37.84025 109.96332 14.13018 2.45086 -19.71772 15.29288 -19.20498 48.29013 -104.09099 14.73127 -1.09505 43.66837 1.24147 -8.24702 -19.51921 -6.28766 -3.6175 -2.51612 46.71551 2.21535 3.59289 -25.15283 -6.39082 3.11241 2.2302
-0.00137 0.00054 0.00313 25.51867 -30.99466 -6.80403 48.17703 1.62223 -4.31577 8.65342 -0.51485 -0.50458 -16.91155 -14.59592 17.81139 37.9123 106.02558 13.05693 1.85424 -20.18355 15.76219 -18.29855 48.43095 -103.95602 14.49801 -1.11825 43.78359 1.22969 -8.2958 -19.512 -6.29839 -3.61871 -2.51687 46.84473 2.18646 3.4135 -25.15192 -6.4065 3.1088 2.23402
